# xmcd
#
# Track frame offsets: 
#        150
#        64525
#        125354
#
# Disc length: 4780 seconds
#
# Revision: 0
# Processed by: cddbd v1.5.2PL0 Copyright (c) Steve Scherf et al.
# Submitted via: ExactAudioCopy v0.99pb4
#
DISCID=1f12aa03
DTITLE=Oxymora - Alien Terrain
DYEAR=2008
DGENRE=Electronic
TTITLE0=Ethereal Landscape
TTITLE1=Magma Distribution
TTITLE2=Odyssey
EXTD=
EXTT0=
EXTT1=
EXTT2=
PLAYORDER=
